<mxfile host="app.diagrams.net" modified="2024-03-19T12:59:34.823Z" agent="Mozilla/5.0 (Windows NT 10.0; Win64; x64) AppleWebKit/537.36 (KHTML, like Gecko) Chrome/122.0.0.0 Safari/537.36" etag="21duqeTvQp-xyyoz3CS5" version="24.0.7" type="github">
  <diagram name="Страница — 1" id="UNctsE5mJRGefw-00xwy">
    <mxGraphModel dx="3034" dy="2030" grid="0" gridSize="10" guides="1" tooltips="1" connect="1" arrows="1" fold="1" page="0" pageScale="1" pageWidth="827" pageHeight="1169" math="0" shadow="0">
      <root>
        <mxCell id="0" />
        <mxCell id="1" parent="0" />
        <mxCell id="jkMxCx7ctsYun3yF6uoc-125" value="" style="edgeStyle=orthogonalEdgeStyle;fontSize=12;html=1;endArrow=ERoneToMany;rounded=0;startSize=8;endSize=8;curved=1;entryX=-0.012;entryY=0.165;entryDx=0;entryDy=0;entryPerimeter=0;exitX=1.006;exitY=0.131;exitDx=0;exitDy=0;exitPerimeter=0;" edge="1" parent="1" source="jkMxCx7ctsYun3yF6uoc-67" target="jkMxCx7ctsYun3yF6uoc-63">
          <mxGeometry width="100" height="100" relative="1" as="geometry">
            <mxPoint x="-933" y="-647" as="sourcePoint" />
            <mxPoint x="-856.0000000000001" y="-390.0229999999999" as="targetPoint" />
          </mxGeometry>
        </mxCell>
        <mxCell id="jkMxCx7ctsYun3yF6uoc-1" value="DATABASE vk" style="rounded=0;whiteSpace=wrap;html=1;" vertex="1" parent="1">
          <mxGeometry x="-809" y="-1065" width="530" height="60" as="geometry" />
        </mxCell>
        <mxCell id="jkMxCx7ctsYun3yF6uoc-3" value="communities" style="shape=table;startSize=30;container=1;collapsible=1;childLayout=tableLayout;fixedRows=1;rowLines=0;fontStyle=1;align=center;resizeLast=1;html=1;" vertex="1" parent="1">
          <mxGeometry x="-96" y="-843" width="180" height="140" as="geometry" />
        </mxCell>
        <mxCell id="jkMxCx7ctsYun3yF6uoc-4" value="" style="shape=tableRow;horizontal=0;startSize=0;swimlaneHead=0;swimlaneBody=0;fillColor=none;collapsible=0;dropTarget=0;points=[[0,0.5],[1,0.5]];portConstraint=eastwest;top=0;left=0;right=0;bottom=1;" vertex="1" parent="jkMxCx7ctsYun3yF6uoc-3">
          <mxGeometry y="30" width="180" height="30" as="geometry" />
        </mxCell>
        <mxCell id="jkMxCx7ctsYun3yF6uoc-5" value="PK" style="shape=partialRectangle;connectable=0;fillColor=none;top=0;left=0;bottom=0;right=0;fontStyle=1;overflow=hidden;whiteSpace=wrap;html=1;" vertex="1" parent="jkMxCx7ctsYun3yF6uoc-4">
          <mxGeometry width="30" height="30" as="geometry">
            <mxRectangle width="30" height="30" as="alternateBounds" />
          </mxGeometry>
        </mxCell>
        <mxCell id="jkMxCx7ctsYun3yF6uoc-6" value="Id" style="shape=partialRectangle;connectable=0;fillColor=none;top=0;left=0;bottom=0;right=0;align=left;spacingLeft=6;fontStyle=5;overflow=hidden;whiteSpace=wrap;html=1;" vertex="1" parent="jkMxCx7ctsYun3yF6uoc-4">
          <mxGeometry x="30" width="150" height="30" as="geometry">
            <mxRectangle width="150" height="30" as="alternateBounds" />
          </mxGeometry>
        </mxCell>
        <mxCell id="jkMxCx7ctsYun3yF6uoc-7" value="" style="shape=tableRow;horizontal=0;startSize=0;swimlaneHead=0;swimlaneBody=0;fillColor=none;collapsible=0;dropTarget=0;points=[[0,0.5],[1,0.5]];portConstraint=eastwest;top=0;left=0;right=0;bottom=0;" vertex="1" parent="jkMxCx7ctsYun3yF6uoc-3">
          <mxGeometry y="60" width="180" height="30" as="geometry" />
        </mxCell>
        <mxCell id="jkMxCx7ctsYun3yF6uoc-8" value="" style="shape=partialRectangle;connectable=0;fillColor=none;top=0;left=0;bottom=0;right=0;editable=1;overflow=hidden;whiteSpace=wrap;html=1;" vertex="1" parent="jkMxCx7ctsYun3yF6uoc-7">
          <mxGeometry width="30" height="30" as="geometry">
            <mxRectangle width="30" height="30" as="alternateBounds" />
          </mxGeometry>
        </mxCell>
        <mxCell id="jkMxCx7ctsYun3yF6uoc-9" value="name" style="shape=partialRectangle;connectable=0;fillColor=none;top=0;left=0;bottom=0;right=0;align=left;spacingLeft=6;overflow=hidden;whiteSpace=wrap;html=1;" vertex="1" parent="jkMxCx7ctsYun3yF6uoc-7">
          <mxGeometry x="30" width="150" height="30" as="geometry">
            <mxRectangle width="150" height="30" as="alternateBounds" />
          </mxGeometry>
        </mxCell>
        <mxCell id="jkMxCx7ctsYun3yF6uoc-10" value="" style="shape=tableRow;horizontal=0;startSize=0;swimlaneHead=0;swimlaneBody=0;fillColor=none;collapsible=0;dropTarget=0;points=[[0,0.5],[1,0.5]];portConstraint=eastwest;top=0;left=0;right=0;bottom=0;" vertex="1" parent="jkMxCx7ctsYun3yF6uoc-3">
          <mxGeometry y="90" width="180" height="30" as="geometry" />
        </mxCell>
        <mxCell id="jkMxCx7ctsYun3yF6uoc-11" value="" style="shape=partialRectangle;connectable=0;fillColor=none;top=0;left=0;bottom=0;right=0;editable=1;overflow=hidden;whiteSpace=wrap;html=1;" vertex="1" parent="jkMxCx7ctsYun3yF6uoc-10">
          <mxGeometry width="30" height="30" as="geometry">
            <mxRectangle width="30" height="30" as="alternateBounds" />
          </mxGeometry>
        </mxCell>
        <mxCell id="jkMxCx7ctsYun3yF6uoc-12" value="" style="shape=partialRectangle;connectable=0;fillColor=none;top=0;left=0;bottom=0;right=0;align=left;spacingLeft=6;overflow=hidden;whiteSpace=wrap;html=1;" vertex="1" parent="jkMxCx7ctsYun3yF6uoc-10">
          <mxGeometry x="30" width="150" height="30" as="geometry">
            <mxRectangle width="150" height="30" as="alternateBounds" />
          </mxGeometry>
        </mxCell>
        <mxCell id="jkMxCx7ctsYun3yF6uoc-13" value="" style="shape=tableRow;horizontal=0;startSize=0;swimlaneHead=0;swimlaneBody=0;fillColor=none;collapsible=0;dropTarget=0;points=[[0,0.5],[1,0.5]];portConstraint=eastwest;top=0;left=0;right=0;bottom=0;" vertex="1" parent="jkMxCx7ctsYun3yF6uoc-3">
          <mxGeometry y="120" width="180" height="20" as="geometry" />
        </mxCell>
        <mxCell id="jkMxCx7ctsYun3yF6uoc-14" value="" style="shape=partialRectangle;connectable=0;fillColor=none;top=0;left=0;bottom=0;right=0;editable=1;overflow=hidden;whiteSpace=wrap;html=1;" vertex="1" parent="jkMxCx7ctsYun3yF6uoc-13">
          <mxGeometry width="30" height="20" as="geometry">
            <mxRectangle width="30" height="20" as="alternateBounds" />
          </mxGeometry>
        </mxCell>
        <mxCell id="jkMxCx7ctsYun3yF6uoc-15" value="" style="shape=partialRectangle;connectable=0;fillColor=none;top=0;left=0;bottom=0;right=0;align=left;spacingLeft=6;overflow=hidden;whiteSpace=wrap;html=1;" vertex="1" parent="jkMxCx7ctsYun3yF6uoc-13">
          <mxGeometry x="30" width="150" height="20" as="geometry">
            <mxRectangle width="150" height="20" as="alternateBounds" />
          </mxGeometry>
        </mxCell>
        <mxCell id="jkMxCx7ctsYun3yF6uoc-31" value="friend_requests" style="shape=table;startSize=30;container=1;collapsible=1;childLayout=tableLayout;fixedRows=1;rowLines=0;fontStyle=1;align=center;resizeLast=1;html=1;whiteSpace=wrap;" vertex="1" parent="1">
          <mxGeometry x="-926" y="-858" width="180" height="178" as="geometry" />
        </mxCell>
        <mxCell id="jkMxCx7ctsYun3yF6uoc-32" value="" style="shape=tableRow;horizontal=0;startSize=0;swimlaneHead=0;swimlaneBody=0;fillColor=none;collapsible=0;dropTarget=0;points=[[0,0.5],[1,0.5]];portConstraint=eastwest;top=0;left=0;right=0;bottom=0;html=1;" vertex="1" parent="jkMxCx7ctsYun3yF6uoc-31">
          <mxGeometry y="30" width="180" height="30" as="geometry" />
        </mxCell>
        <mxCell id="jkMxCx7ctsYun3yF6uoc-33" value="PK,FK1" style="shape=partialRectangle;connectable=0;fillColor=none;top=0;left=0;bottom=0;right=0;fontStyle=1;overflow=hidden;html=1;whiteSpace=wrap;" vertex="1" parent="jkMxCx7ctsYun3yF6uoc-32">
          <mxGeometry width="60" height="30" as="geometry">
            <mxRectangle width="60" height="30" as="alternateBounds" />
          </mxGeometry>
        </mxCell>
        <mxCell id="jkMxCx7ctsYun3yF6uoc-34" value="initiator_user_id" style="shape=partialRectangle;connectable=0;fillColor=none;top=0;left=0;bottom=0;right=0;align=left;spacingLeft=6;fontStyle=5;overflow=hidden;html=1;whiteSpace=wrap;" vertex="1" parent="jkMxCx7ctsYun3yF6uoc-32">
          <mxGeometry x="60" width="120" height="30" as="geometry">
            <mxRectangle width="120" height="30" as="alternateBounds" />
          </mxGeometry>
        </mxCell>
        <mxCell id="jkMxCx7ctsYun3yF6uoc-35" value="" style="shape=tableRow;horizontal=0;startSize=0;swimlaneHead=0;swimlaneBody=0;fillColor=none;collapsible=0;dropTarget=0;points=[[0,0.5],[1,0.5]];portConstraint=eastwest;top=0;left=0;right=0;bottom=1;html=1;" vertex="1" parent="jkMxCx7ctsYun3yF6uoc-31">
          <mxGeometry y="60" width="180" height="30" as="geometry" />
        </mxCell>
        <mxCell id="jkMxCx7ctsYun3yF6uoc-36" value="PK,FK2" style="shape=partialRectangle;connectable=0;fillColor=none;top=0;left=0;bottom=0;right=0;fontStyle=1;overflow=hidden;html=1;whiteSpace=wrap;" vertex="1" parent="jkMxCx7ctsYun3yF6uoc-35">
          <mxGeometry width="60" height="30" as="geometry">
            <mxRectangle width="60" height="30" as="alternateBounds" />
          </mxGeometry>
        </mxCell>
        <mxCell id="jkMxCx7ctsYun3yF6uoc-37" value="target_user_id" style="shape=partialRectangle;connectable=0;fillColor=none;top=0;left=0;bottom=0;right=0;align=left;spacingLeft=6;fontStyle=5;overflow=hidden;html=1;whiteSpace=wrap;" vertex="1" parent="jkMxCx7ctsYun3yF6uoc-35">
          <mxGeometry x="60" width="120" height="30" as="geometry">
            <mxRectangle width="120" height="30" as="alternateBounds" />
          </mxGeometry>
        </mxCell>
        <mxCell id="jkMxCx7ctsYun3yF6uoc-38" value="" style="shape=tableRow;horizontal=0;startSize=0;swimlaneHead=0;swimlaneBody=0;fillColor=none;collapsible=0;dropTarget=0;points=[[0,0.5],[1,0.5]];portConstraint=eastwest;top=0;left=0;right=0;bottom=0;html=1;" vertex="1" parent="jkMxCx7ctsYun3yF6uoc-31">
          <mxGeometry y="90" width="180" height="30" as="geometry" />
        </mxCell>
        <mxCell id="jkMxCx7ctsYun3yF6uoc-39" value="" style="shape=partialRectangle;connectable=0;fillColor=none;top=0;left=0;bottom=0;right=0;editable=1;overflow=hidden;html=1;whiteSpace=wrap;" vertex="1" parent="jkMxCx7ctsYun3yF6uoc-38">
          <mxGeometry width="60" height="30" as="geometry">
            <mxRectangle width="60" height="30" as="alternateBounds" />
          </mxGeometry>
        </mxCell>
        <mxCell id="jkMxCx7ctsYun3yF6uoc-40" value="status" style="shape=partialRectangle;connectable=0;fillColor=none;top=0;left=0;bottom=0;right=0;align=left;spacingLeft=6;overflow=hidden;html=1;whiteSpace=wrap;" vertex="1" parent="jkMxCx7ctsYun3yF6uoc-38">
          <mxGeometry x="60" width="120" height="30" as="geometry">
            <mxRectangle width="120" height="30" as="alternateBounds" />
          </mxGeometry>
        </mxCell>
        <mxCell id="jkMxCx7ctsYun3yF6uoc-41" value="" style="shape=tableRow;horizontal=0;startSize=0;swimlaneHead=0;swimlaneBody=0;fillColor=none;collapsible=0;dropTarget=0;points=[[0,0.5],[1,0.5]];portConstraint=eastwest;top=0;left=0;right=0;bottom=0;html=1;" vertex="1" parent="jkMxCx7ctsYun3yF6uoc-31">
          <mxGeometry y="120" width="180" height="58" as="geometry" />
        </mxCell>
        <mxCell id="jkMxCx7ctsYun3yF6uoc-42" value="" style="shape=partialRectangle;connectable=0;fillColor=none;top=0;left=0;bottom=0;right=0;editable=1;overflow=hidden;html=1;whiteSpace=wrap;" vertex="1" parent="jkMxCx7ctsYun3yF6uoc-41">
          <mxGeometry width="60" height="58" as="geometry">
            <mxRectangle width="60" height="58" as="alternateBounds" />
          </mxGeometry>
        </mxCell>
        <mxCell id="jkMxCx7ctsYun3yF6uoc-43" value="requested_at&lt;div&gt;&lt;br&gt;&lt;/div&gt;&lt;div&gt;&lt;div&gt;confirmed_at&lt;br&gt;&lt;/div&gt;&lt;/div&gt;" style="shape=partialRectangle;connectable=0;fillColor=none;top=0;left=0;bottom=0;right=0;align=left;spacingLeft=6;overflow=hidden;html=1;whiteSpace=wrap;" vertex="1" parent="jkMxCx7ctsYun3yF6uoc-41">
          <mxGeometry x="60" width="120" height="58" as="geometry">
            <mxRectangle width="120" height="58" as="alternateBounds" />
          </mxGeometry>
        </mxCell>
        <mxCell id="jkMxCx7ctsYun3yF6uoc-57" value="likes" style="swimlane;fontStyle=0;childLayout=stackLayout;horizontal=1;startSize=26;horizontalStack=0;resizeParent=1;resizeParentMax=0;resizeLast=0;collapsible=1;marginBottom=0;align=center;fontSize=14;" vertex="1" parent="1">
          <mxGeometry x="-861" y="-576" width="160" height="138" as="geometry" />
        </mxCell>
        <mxCell id="jkMxCx7ctsYun3yF6uoc-58" value="id" style="text;strokeColor=none;fillColor=none;spacingLeft=4;spacingRight=4;overflow=hidden;rotatable=0;points=[[0,0.5],[1,0.5]];portConstraint=eastwest;fontSize=12;whiteSpace=wrap;html=1;" vertex="1" parent="jkMxCx7ctsYun3yF6uoc-57">
          <mxGeometry y="26" width="160" height="30" as="geometry" />
        </mxCell>
        <mxCell id="jkMxCx7ctsYun3yF6uoc-59" value="user_id" style="text;strokeColor=none;fillColor=none;spacingLeft=4;spacingRight=4;overflow=hidden;rotatable=0;points=[[0,0.5],[1,0.5]];portConstraint=eastwest;fontSize=12;whiteSpace=wrap;html=1;" vertex="1" parent="jkMxCx7ctsYun3yF6uoc-57">
          <mxGeometry y="56" width="160" height="30" as="geometry" />
        </mxCell>
        <mxCell id="jkMxCx7ctsYun3yF6uoc-60" value="media_id&lt;div&gt;&lt;br&gt;&lt;/div&gt;&lt;div&gt;created_at&lt;br&gt;&lt;/div&gt;" style="text;strokeColor=none;fillColor=none;spacingLeft=4;spacingRight=4;overflow=hidden;rotatable=0;points=[[0,0.5],[1,0.5]];portConstraint=eastwest;fontSize=12;whiteSpace=wrap;html=1;" vertex="1" parent="jkMxCx7ctsYun3yF6uoc-57">
          <mxGeometry y="86" width="160" height="52" as="geometry" />
        </mxCell>
        <mxCell id="jkMxCx7ctsYun3yF6uoc-62" value="media" style="swimlane;fontStyle=0;childLayout=stackLayout;horizontal=1;startSize=26;horizontalStack=0;resizeParent=1;resizeParentMax=0;resizeLast=0;collapsible=1;marginBottom=0;align=center;fontSize=14;" vertex="1" parent="1">
          <mxGeometry x="-1076" y="-429" width="160" height="287" as="geometry" />
        </mxCell>
        <mxCell id="jkMxCx7ctsYun3yF6uoc-63" value="id&lt;div&gt;&lt;br&gt;&lt;/div&gt;&lt;div&gt;media_type_id&lt;br&gt;&lt;/div&gt;&lt;div&gt;&lt;br&gt;&lt;/div&gt;&lt;div&gt;user_id&lt;br&gt;&lt;/div&gt;&lt;div&gt;&lt;br&gt;&lt;/div&gt;&lt;div&gt;body&lt;br&gt;&lt;/div&gt;&lt;div&gt;&lt;br&gt;&lt;/div&gt;&lt;div&gt;filename&lt;br&gt;&lt;/div&gt;&lt;div&gt;&lt;br&gt;&lt;/div&gt;&lt;div&gt;size&lt;br&gt;&lt;/div&gt;&lt;div&gt;&lt;br&gt;&lt;/div&gt;&lt;div&gt;metadata&lt;br&gt;&lt;/div&gt;&lt;div&gt;&lt;br&gt;&lt;/div&gt;&lt;div&gt;created_at&lt;br&gt;&lt;/div&gt;&lt;div&gt;&lt;br&gt;&lt;/div&gt;&lt;div&gt;updated_at&lt;br&gt;&lt;/div&gt;&lt;div&gt;&lt;br&gt;&lt;/div&gt;&lt;div&gt;&lt;br&gt;&lt;/div&gt;" style="text;strokeColor=none;fillColor=none;spacingLeft=4;spacingRight=4;overflow=hidden;rotatable=0;points=[[0,0.5],[1,0.5]];portConstraint=eastwest;fontSize=12;whiteSpace=wrap;html=1;" vertex="1" parent="jkMxCx7ctsYun3yF6uoc-62">
          <mxGeometry y="26" width="160" height="261" as="geometry" />
        </mxCell>
        <mxCell id="jkMxCx7ctsYun3yF6uoc-66" value="media_types" style="swimlane;fontStyle=0;childLayout=stackLayout;horizontal=1;startSize=26;horizontalStack=0;resizeParent=1;resizeParentMax=0;resizeLast=0;collapsible=1;marginBottom=0;align=center;fontSize=14;" vertex="1" parent="1">
          <mxGeometry x="-1450" y="-401" width="160" height="125" as="geometry" />
        </mxCell>
        <mxCell id="jkMxCx7ctsYun3yF6uoc-67" value="id&lt;div&gt;&lt;br&gt;&lt;/div&gt;&lt;div&gt;name&lt;br&gt;&lt;/div&gt;&lt;div&gt;&lt;br&gt;&lt;/div&gt;&lt;div&gt;created_at&lt;br&gt;&lt;/div&gt;" style="text;strokeColor=none;fillColor=none;spacingLeft=4;spacingRight=4;overflow=hidden;rotatable=0;points=[[0,0.5],[1,0.5]];portConstraint=eastwest;fontSize=12;whiteSpace=wrap;html=1;" vertex="1" parent="jkMxCx7ctsYun3yF6uoc-66">
          <mxGeometry y="26" width="160" height="99" as="geometry" />
        </mxCell>
        <mxCell id="jkMxCx7ctsYun3yF6uoc-70" value="messages" style="swimlane;fontStyle=0;childLayout=stackLayout;horizontal=1;startSize=26;horizontalStack=0;resizeParent=1;resizeParentMax=0;resizeLast=0;collapsible=1;marginBottom=0;align=center;fontSize=14;" vertex="1" parent="1">
          <mxGeometry x="-163" y="-627" width="160" height="171" as="geometry" />
        </mxCell>
        <mxCell id="jkMxCx7ctsYun3yF6uoc-74" value="profiles" style="swimlane;fontStyle=0;childLayout=stackLayout;horizontal=1;startSize=26;horizontalStack=0;resizeParent=1;resizeParentMax=0;resizeLast=0;collapsible=1;marginBottom=0;align=center;fontSize=14;" vertex="1" parent="1">
          <mxGeometry x="-1211" y="-955" width="160" height="201" as="geometry" />
        </mxCell>
        <mxCell id="jkMxCx7ctsYun3yF6uoc-75" value="user_id&lt;div&gt;&lt;br&gt;&lt;/div&gt;&lt;div&gt;gender&lt;br&gt;&lt;/div&gt;&lt;div&gt;&lt;br&gt;&lt;/div&gt;&lt;div&gt;birthday&lt;br&gt;&lt;/div&gt;&lt;div&gt;&lt;br&gt;&lt;/div&gt;&lt;div&gt;photo_id&lt;br&gt;&lt;/div&gt;&lt;div&gt;&lt;br&gt;&lt;/div&gt;&lt;div&gt;created_at&lt;br&gt;&lt;/div&gt;&lt;div&gt;&lt;br&gt;&lt;/div&gt;&lt;div&gt;hometown&lt;br&gt;&lt;/div&gt;" style="text;strokeColor=none;fillColor=none;spacingLeft=4;spacingRight=4;overflow=hidden;rotatable=0;points=[[0,0.5],[1,0.5]];portConstraint=eastwest;fontSize=12;whiteSpace=wrap;html=1;" vertex="1" parent="jkMxCx7ctsYun3yF6uoc-74">
          <mxGeometry y="26" width="160" height="175" as="geometry" />
        </mxCell>
        <mxCell id="jkMxCx7ctsYun3yF6uoc-78" value="users" style="shape=table;startSize=30;container=1;collapsible=1;childLayout=tableLayout;fixedRows=1;rowLines=0;fontStyle=1;align=center;resizeLast=1;html=1;" vertex="1" parent="1">
          <mxGeometry x="-643" y="-843" width="180" height="253" as="geometry" />
        </mxCell>
        <mxCell id="jkMxCx7ctsYun3yF6uoc-79" value="" style="shape=tableRow;horizontal=0;startSize=0;swimlaneHead=0;swimlaneBody=0;fillColor=none;collapsible=0;dropTarget=0;points=[[0,0.5],[1,0.5]];portConstraint=eastwest;top=0;left=0;right=0;bottom=1;" vertex="1" parent="jkMxCx7ctsYun3yF6uoc-78">
          <mxGeometry y="30" width="180" height="30" as="geometry" />
        </mxCell>
        <mxCell id="jkMxCx7ctsYun3yF6uoc-80" value="PK" style="shape=partialRectangle;connectable=0;fillColor=none;top=0;left=0;bottom=0;right=0;fontStyle=1;overflow=hidden;whiteSpace=wrap;html=1;" vertex="1" parent="jkMxCx7ctsYun3yF6uoc-79">
          <mxGeometry width="30" height="30" as="geometry">
            <mxRectangle width="30" height="30" as="alternateBounds" />
          </mxGeometry>
        </mxCell>
        <mxCell id="jkMxCx7ctsYun3yF6uoc-81" value="id" style="shape=partialRectangle;connectable=0;fillColor=none;top=0;left=0;bottom=0;right=0;align=left;spacingLeft=6;fontStyle=5;overflow=hidden;whiteSpace=wrap;html=1;" vertex="1" parent="jkMxCx7ctsYun3yF6uoc-79">
          <mxGeometry x="30" width="150" height="30" as="geometry">
            <mxRectangle width="150" height="30" as="alternateBounds" />
          </mxGeometry>
        </mxCell>
        <mxCell id="jkMxCx7ctsYun3yF6uoc-82" value="" style="shape=tableRow;horizontal=0;startSize=0;swimlaneHead=0;swimlaneBody=0;fillColor=none;collapsible=0;dropTarget=0;points=[[0,0.5],[1,0.5]];portConstraint=eastwest;top=0;left=0;right=0;bottom=0;" vertex="1" parent="jkMxCx7ctsYun3yF6uoc-78">
          <mxGeometry y="60" width="180" height="133" as="geometry" />
        </mxCell>
        <mxCell id="jkMxCx7ctsYun3yF6uoc-83" value="" style="shape=partialRectangle;connectable=0;fillColor=none;top=0;left=0;bottom=0;right=0;editable=1;overflow=hidden;whiteSpace=wrap;html=1;" vertex="1" parent="jkMxCx7ctsYun3yF6uoc-82">
          <mxGeometry width="30" height="133" as="geometry">
            <mxRectangle width="30" height="133" as="alternateBounds" />
          </mxGeometry>
        </mxCell>
        <mxCell id="jkMxCx7ctsYun3yF6uoc-84" value="firstname&lt;div&gt;&lt;br&gt;&lt;/div&gt;&lt;div&gt;lastname&lt;br&gt;&lt;/div&gt;&lt;div&gt;&lt;br&gt;&lt;/div&gt;&lt;div&gt;&lt;span style=&quot;background-color: initial;&quot;&gt;email&lt;/span&gt;&lt;br&gt;&lt;/div&gt;&lt;div&gt;&lt;span style=&quot;background-color: initial;&quot;&gt;&lt;br&gt;&lt;/span&gt;&lt;/div&gt;&lt;div&gt;&lt;span style=&quot;background-color: initial;&quot;&gt;phone&lt;br&gt;&lt;/span&gt;&lt;/div&gt;&lt;div&gt;&lt;br&gt;&lt;/div&gt;" style="shape=partialRectangle;connectable=0;fillColor=none;top=0;left=0;bottom=0;right=0;align=left;spacingLeft=6;overflow=hidden;whiteSpace=wrap;html=1;" vertex="1" parent="jkMxCx7ctsYun3yF6uoc-82">
          <mxGeometry x="30" width="150" height="133" as="geometry">
            <mxRectangle width="150" height="133" as="alternateBounds" />
          </mxGeometry>
        </mxCell>
        <mxCell id="jkMxCx7ctsYun3yF6uoc-85" value="" style="shape=tableRow;horizontal=0;startSize=0;swimlaneHead=0;swimlaneBody=0;fillColor=none;collapsible=0;dropTarget=0;points=[[0,0.5],[1,0.5]];portConstraint=eastwest;top=0;left=0;right=0;bottom=0;" vertex="1" parent="jkMxCx7ctsYun3yF6uoc-78">
          <mxGeometry y="193" width="180" height="30" as="geometry" />
        </mxCell>
        <mxCell id="jkMxCx7ctsYun3yF6uoc-86" value="" style="shape=partialRectangle;connectable=0;fillColor=none;top=0;left=0;bottom=0;right=0;editable=1;overflow=hidden;whiteSpace=wrap;html=1;" vertex="1" parent="jkMxCx7ctsYun3yF6uoc-85">
          <mxGeometry width="30" height="30" as="geometry">
            <mxRectangle width="30" height="30" as="alternateBounds" />
          </mxGeometry>
        </mxCell>
        <mxCell id="jkMxCx7ctsYun3yF6uoc-87" value="" style="shape=partialRectangle;connectable=0;fillColor=none;top=0;left=0;bottom=0;right=0;align=left;spacingLeft=6;overflow=hidden;whiteSpace=wrap;html=1;" vertex="1" parent="jkMxCx7ctsYun3yF6uoc-85">
          <mxGeometry x="30" width="150" height="30" as="geometry">
            <mxRectangle width="150" height="30" as="alternateBounds" />
          </mxGeometry>
        </mxCell>
        <mxCell id="jkMxCx7ctsYun3yF6uoc-88" value="" style="shape=tableRow;horizontal=0;startSize=0;swimlaneHead=0;swimlaneBody=0;fillColor=none;collapsible=0;dropTarget=0;points=[[0,0.5],[1,0.5]];portConstraint=eastwest;top=0;left=0;right=0;bottom=0;" vertex="1" parent="jkMxCx7ctsYun3yF6uoc-78">
          <mxGeometry y="223" width="180" height="30" as="geometry" />
        </mxCell>
        <mxCell id="jkMxCx7ctsYun3yF6uoc-89" value="" style="shape=partialRectangle;connectable=0;fillColor=none;top=0;left=0;bottom=0;right=0;editable=1;overflow=hidden;whiteSpace=wrap;html=1;" vertex="1" parent="jkMxCx7ctsYun3yF6uoc-88">
          <mxGeometry width="30" height="30" as="geometry">
            <mxRectangle width="30" height="30" as="alternateBounds" />
          </mxGeometry>
        </mxCell>
        <mxCell id="jkMxCx7ctsYun3yF6uoc-90" value="" style="shape=partialRectangle;connectable=0;fillColor=none;top=0;left=0;bottom=0;right=0;align=left;spacingLeft=6;overflow=hidden;whiteSpace=wrap;html=1;" vertex="1" parent="jkMxCx7ctsYun3yF6uoc-88">
          <mxGeometry x="30" width="150" height="30" as="geometry">
            <mxRectangle width="150" height="30" as="alternateBounds" />
          </mxGeometry>
        </mxCell>
        <mxCell id="jkMxCx7ctsYun3yF6uoc-104" value="users_communities" style="shape=table;startSize=30;container=1;collapsible=1;childLayout=tableLayout;fixedRows=1;rowLines=0;fontStyle=1;align=center;resizeLast=1;html=1;whiteSpace=wrap;" vertex="1" parent="1">
          <mxGeometry x="-316" y="-872" width="180" height="150" as="geometry" />
        </mxCell>
        <mxCell id="jkMxCx7ctsYun3yF6uoc-105" value="" style="shape=tableRow;horizontal=0;startSize=0;swimlaneHead=0;swimlaneBody=0;fillColor=none;collapsible=0;dropTarget=0;points=[[0,0.5],[1,0.5]];portConstraint=eastwest;top=0;left=0;right=0;bottom=0;html=1;" vertex="1" parent="jkMxCx7ctsYun3yF6uoc-104">
          <mxGeometry y="30" width="180" height="30" as="geometry" />
        </mxCell>
        <mxCell id="jkMxCx7ctsYun3yF6uoc-106" value="PK,FK1" style="shape=partialRectangle;connectable=0;fillColor=none;top=0;left=0;bottom=0;right=0;fontStyle=1;overflow=hidden;html=1;whiteSpace=wrap;" vertex="1" parent="jkMxCx7ctsYun3yF6uoc-105">
          <mxGeometry width="60" height="30" as="geometry">
            <mxRectangle width="60" height="30" as="alternateBounds" />
          </mxGeometry>
        </mxCell>
        <mxCell id="jkMxCx7ctsYun3yF6uoc-107" value="user_id" style="shape=partialRectangle;connectable=0;fillColor=none;top=0;left=0;bottom=0;right=0;align=left;spacingLeft=6;fontStyle=5;overflow=hidden;html=1;whiteSpace=wrap;" vertex="1" parent="jkMxCx7ctsYun3yF6uoc-105">
          <mxGeometry x="60" width="120" height="30" as="geometry">
            <mxRectangle width="120" height="30" as="alternateBounds" />
          </mxGeometry>
        </mxCell>
        <mxCell id="jkMxCx7ctsYun3yF6uoc-108" value="" style="shape=tableRow;horizontal=0;startSize=0;swimlaneHead=0;swimlaneBody=0;fillColor=none;collapsible=0;dropTarget=0;points=[[0,0.5],[1,0.5]];portConstraint=eastwest;top=0;left=0;right=0;bottom=1;html=1;" vertex="1" parent="jkMxCx7ctsYun3yF6uoc-104">
          <mxGeometry y="60" width="180" height="30" as="geometry" />
        </mxCell>
        <mxCell id="jkMxCx7ctsYun3yF6uoc-109" value="PK,FK2" style="shape=partialRectangle;connectable=0;fillColor=none;top=0;left=0;bottom=0;right=0;fontStyle=1;overflow=hidden;html=1;whiteSpace=wrap;" vertex="1" parent="jkMxCx7ctsYun3yF6uoc-108">
          <mxGeometry width="60" height="30" as="geometry">
            <mxRectangle width="60" height="30" as="alternateBounds" />
          </mxGeometry>
        </mxCell>
        <mxCell id="jkMxCx7ctsYun3yF6uoc-110" value="community_id" style="shape=partialRectangle;connectable=0;fillColor=none;top=0;left=0;bottom=0;right=0;align=left;spacingLeft=6;fontStyle=5;overflow=hidden;html=1;whiteSpace=wrap;" vertex="1" parent="jkMxCx7ctsYun3yF6uoc-108">
          <mxGeometry x="60" width="120" height="30" as="geometry">
            <mxRectangle width="120" height="30" as="alternateBounds" />
          </mxGeometry>
        </mxCell>
        <mxCell id="jkMxCx7ctsYun3yF6uoc-111" value="" style="shape=tableRow;horizontal=0;startSize=0;swimlaneHead=0;swimlaneBody=0;fillColor=none;collapsible=0;dropTarget=0;points=[[0,0.5],[1,0.5]];portConstraint=eastwest;top=0;left=0;right=0;bottom=0;html=1;" vertex="1" parent="jkMxCx7ctsYun3yF6uoc-104">
          <mxGeometry y="90" width="180" height="30" as="geometry" />
        </mxCell>
        <mxCell id="jkMxCx7ctsYun3yF6uoc-112" value="" style="shape=partialRectangle;connectable=0;fillColor=none;top=0;left=0;bottom=0;right=0;editable=1;overflow=hidden;html=1;whiteSpace=wrap;" vertex="1" parent="jkMxCx7ctsYun3yF6uoc-111">
          <mxGeometry width="60" height="30" as="geometry">
            <mxRectangle width="60" height="30" as="alternateBounds" />
          </mxGeometry>
        </mxCell>
        <mxCell id="jkMxCx7ctsYun3yF6uoc-113" value="" style="shape=partialRectangle;connectable=0;fillColor=none;top=0;left=0;bottom=0;right=0;align=left;spacingLeft=6;overflow=hidden;html=1;whiteSpace=wrap;" vertex="1" parent="jkMxCx7ctsYun3yF6uoc-111">
          <mxGeometry x="60" width="120" height="30" as="geometry">
            <mxRectangle width="120" height="30" as="alternateBounds" />
          </mxGeometry>
        </mxCell>
        <mxCell id="jkMxCx7ctsYun3yF6uoc-114" value="" style="shape=tableRow;horizontal=0;startSize=0;swimlaneHead=0;swimlaneBody=0;fillColor=none;collapsible=0;dropTarget=0;points=[[0,0.5],[1,0.5]];portConstraint=eastwest;top=0;left=0;right=0;bottom=0;html=1;" vertex="1" parent="jkMxCx7ctsYun3yF6uoc-104">
          <mxGeometry y="120" width="180" height="30" as="geometry" />
        </mxCell>
        <mxCell id="jkMxCx7ctsYun3yF6uoc-115" value="" style="shape=partialRectangle;connectable=0;fillColor=none;top=0;left=0;bottom=0;right=0;editable=1;overflow=hidden;html=1;whiteSpace=wrap;" vertex="1" parent="jkMxCx7ctsYun3yF6uoc-114">
          <mxGeometry width="60" height="30" as="geometry">
            <mxRectangle width="60" height="30" as="alternateBounds" />
          </mxGeometry>
        </mxCell>
        <mxCell id="jkMxCx7ctsYun3yF6uoc-116" value="" style="shape=partialRectangle;connectable=0;fillColor=none;top=0;left=0;bottom=0;right=0;align=left;spacingLeft=6;overflow=hidden;html=1;whiteSpace=wrap;" vertex="1" parent="jkMxCx7ctsYun3yF6uoc-114">
          <mxGeometry x="60" width="120" height="30" as="geometry">
            <mxRectangle width="120" height="30" as="alternateBounds" />
          </mxGeometry>
        </mxCell>
        <mxCell id="jkMxCx7ctsYun3yF6uoc-117" value="" style="edgeStyle=entityRelationEdgeStyle;fontSize=12;html=1;endArrow=ERoneToMany;rounded=0;startSize=8;endSize=8;curved=1;exitX=1;exitY=0.5;exitDx=0;exitDy=0;entryX=0.006;entryY=0.31;entryDx=0;entryDy=0;entryPerimeter=0;" edge="1" parent="1" source="jkMxCx7ctsYun3yF6uoc-79" target="jkMxCx7ctsYun3yF6uoc-71">
          <mxGeometry width="100" height="100" relative="1" as="geometry">
            <mxPoint x="-452" y="-820" as="sourcePoint" />
            <mxPoint x="-330" y="-483" as="targetPoint" />
            <Array as="points">
              <mxPoint x="-365" y="-811" />
              <mxPoint x="-470" y="-591" />
              <mxPoint x="-447" y="-721" />
              <mxPoint x="-438" y="-785" />
              <mxPoint x="-535" y="-387" />
              <mxPoint x="-386" y="-690" />
              <mxPoint x="-369" y="-623" />
              <mxPoint x="-494" y="-655" />
            </Array>
          </mxGeometry>
        </mxCell>
        <mxCell id="jkMxCx7ctsYun3yF6uoc-118" value="" style="edgeStyle=entityRelationEdgeStyle;fontSize=12;html=1;endArrow=ERoneToMany;rounded=0;startSize=8;endSize=8;curved=1;entryX=0;entryY=0.5;entryDx=0;entryDy=0;exitX=1;exitY=0.5;exitDx=0;exitDy=0;" edge="1" parent="1" source="jkMxCx7ctsYun3yF6uoc-79" target="jkMxCx7ctsYun3yF6uoc-71">
          <mxGeometry width="100" height="100" relative="1" as="geometry">
            <mxPoint x="-475" y="-737" as="sourcePoint" />
            <mxPoint x="-146" y="-613" as="targetPoint" />
            <Array as="points">
              <mxPoint x="-292" y="-620" />
            </Array>
          </mxGeometry>
        </mxCell>
        <mxCell id="jkMxCx7ctsYun3yF6uoc-120" value="" style="fontSize=12;html=1;endArrow=ERoneToMany;rounded=0;startSize=8;endSize=8;entryX=1;entryY=0.5;entryDx=0;entryDy=0;" edge="1" parent="1" target="jkMxCx7ctsYun3yF6uoc-32">
          <mxGeometry width="100" height="100" relative="1" as="geometry">
            <mxPoint x="-643" y="-799" as="sourcePoint" />
            <mxPoint x="-731" y="-535" as="targetPoint" />
          </mxGeometry>
        </mxCell>
        <mxCell id="jkMxCx7ctsYun3yF6uoc-121" value="" style="edgeStyle=entityRelationEdgeStyle;fontSize=12;html=1;endArrow=ERoneToMany;rounded=0;startSize=8;endSize=8;curved=1;exitX=0;exitY=0.5;exitDx=0;exitDy=0;entryX=1;entryY=0.5;entryDx=0;entryDy=0;" edge="1" parent="1" source="jkMxCx7ctsYun3yF6uoc-79" target="jkMxCx7ctsYun3yF6uoc-35">
          <mxGeometry width="100" height="100" relative="1" as="geometry">
            <mxPoint x="-540" y="-513" as="sourcePoint" />
            <mxPoint x="-440" y="-613" as="targetPoint" />
          </mxGeometry>
        </mxCell>
        <mxCell id="jkMxCx7ctsYun3yF6uoc-122" value="" style="edgeStyle=entityRelationEdgeStyle;fontSize=12;html=1;endArrow=ERoneToMany;rounded=0;startSize=8;endSize=8;curved=1;exitX=0.989;exitY=0.2;exitDx=0;exitDy=0;exitPerimeter=0;entryX=0;entryY=0.5;entryDx=0;entryDy=0;" edge="1" parent="1" source="jkMxCx7ctsYun3yF6uoc-79" target="jkMxCx7ctsYun3yF6uoc-105">
          <mxGeometry width="100" height="100" relative="1" as="geometry">
            <mxPoint x="-388" y="-591" as="sourcePoint" />
            <mxPoint x="-288" y="-691" as="targetPoint" />
          </mxGeometry>
        </mxCell>
        <mxCell id="jkMxCx7ctsYun3yF6uoc-123" value="" style="fontSize=12;html=1;endArrow=ERoneToMany;rounded=0;startSize=8;endSize=8;entryX=1;entryY=0.5;entryDx=0;entryDy=0;exitX=0;exitY=0.5;exitDx=0;exitDy=0;" edge="1" parent="1" source="jkMxCx7ctsYun3yF6uoc-4" target="jkMxCx7ctsYun3yF6uoc-108">
          <mxGeometry width="100" height="100" relative="1" as="geometry">
            <mxPoint x="-195" y="-826" as="sourcePoint" />
            <mxPoint x="-183" y="-701" as="targetPoint" />
          </mxGeometry>
        </mxCell>
        <mxCell id="jkMxCx7ctsYun3yF6uoc-124" value="" style="fontSize=12;html=1;endArrow=ERoneToMany;rounded=0;startSize=8;endSize=8;exitX=0;exitY=0.5;exitDx=0;exitDy=0;entryX=1.006;entryY=0.272;entryDx=0;entryDy=0;entryPerimeter=0;edgeStyle=orthogonalEdgeStyle;curved=1;" edge="1" parent="1" source="jkMxCx7ctsYun3yF6uoc-79" target="jkMxCx7ctsYun3yF6uoc-63">
          <mxGeometry width="100" height="100" relative="1" as="geometry">
            <mxPoint x="-960" y="-527" as="sourcePoint" />
            <mxPoint x="-1092" y="-472.01" as="targetPoint" />
            <Array as="points">
              <mxPoint x="-643" y="-335" />
            </Array>
          </mxGeometry>
        </mxCell>
        <mxCell id="jkMxCx7ctsYun3yF6uoc-126" value="" style="fontSize=12;html=1;endArrow=ERmandOne;startArrow=ERmandOne;rounded=0;startSize=8;endSize=8;exitX=1;exitY=0.057;exitDx=0;exitDy=0;exitPerimeter=0;edgeStyle=orthogonalEdgeStyle;curved=1;" edge="1" parent="1" source="jkMxCx7ctsYun3yF6uoc-75">
          <mxGeometry width="100" height="100" relative="1" as="geometry">
            <mxPoint x="-557" y="-366" as="sourcePoint" />
            <mxPoint x="-644" y="-800" as="targetPoint" />
            <Array as="points">
              <mxPoint x="-648" y="-919" />
              <mxPoint x="-648" y="-799" />
            </Array>
          </mxGeometry>
        </mxCell>
        <mxCell id="jkMxCx7ctsYun3yF6uoc-71" value="id&lt;div&gt;&lt;br&gt;&lt;/div&gt;&lt;div&gt;from_user_id&lt;br&gt;&lt;/div&gt;&lt;div&gt;&lt;br&gt;&lt;/div&gt;&lt;div&gt;to_user_id&lt;br&gt;&lt;/div&gt;&lt;div&gt;&lt;br&gt;&lt;/div&gt;&lt;div&gt;body&lt;br&gt;&lt;/div&gt;&lt;div&gt;&lt;br&gt;&lt;/div&gt;&lt;div&gt;created_at&lt;br&gt;&lt;/div&gt;" style="text;strokeColor=none;fillColor=none;spacingLeft=4;spacingRight=4;overflow=hidden;rotatable=0;points=[[0,0.5],[1,0.5]];portConstraint=eastwest;fontSize=12;whiteSpace=wrap;html=1;" vertex="1" parent="1">
          <mxGeometry x="-163" y="-599" width="160" height="145" as="geometry" />
        </mxCell>
        <mxCell id="jkMxCx7ctsYun3yF6uoc-128" value="" style="fontSize=12;html=1;endArrow=ERmandOne;startArrow=ERmandOne;rounded=0;startSize=8;endSize=8;entryX=0.019;entryY=0.571;entryDx=0;entryDy=0;entryPerimeter=0;exitX=-0.006;exitY=0.046;exitDx=0;exitDy=0;exitPerimeter=0;edgeStyle=orthogonalEdgeStyle;curved=1;" edge="1" parent="1" source="jkMxCx7ctsYun3yF6uoc-63" target="jkMxCx7ctsYun3yF6uoc-75">
          <mxGeometry width="100" height="100" relative="1" as="geometry">
            <mxPoint x="-1210" y="-628" as="sourcePoint" />
            <mxPoint x="-1236" y="-832" as="targetPoint" />
            <Array as="points">
              <mxPoint x="-1263" y="-576" />
              <mxPoint x="-1263" y="-829" />
            </Array>
          </mxGeometry>
        </mxCell>
        <mxCell id="jkMxCx7ctsYun3yF6uoc-130" value="" style="edgeStyle=entityRelationEdgeStyle;fontSize=12;html=1;endArrow=ERmandOne;startArrow=ERmandOne;rounded=0;startSize=8;endSize=8;curved=1;entryX=0;entryY=0.5;entryDx=0;entryDy=0;exitX=0.994;exitY=0.267;exitDx=0;exitDy=0;exitPerimeter=0;" edge="1" parent="1" source="jkMxCx7ctsYun3yF6uoc-59" target="jkMxCx7ctsYun3yF6uoc-79">
          <mxGeometry width="100" height="100" relative="1" as="geometry">
            <mxPoint x="-706" y="-438" as="sourcePoint" />
            <mxPoint x="-654" y="-785" as="targetPoint" />
            <Array as="points">
              <mxPoint x="-676" y="-668" />
            </Array>
          </mxGeometry>
        </mxCell>
        <mxCell id="jkMxCx7ctsYun3yF6uoc-131" value="" style="edgeStyle=entityRelationEdgeStyle;fontSize=12;html=1;endArrow=ERoneToMany;rounded=0;startSize=8;endSize=8;curved=1;exitX=1;exitY=0.046;exitDx=0;exitDy=0;exitPerimeter=0;entryX=-0.012;entryY=0.288;entryDx=0;entryDy=0;entryPerimeter=0;" edge="1" parent="1" source="jkMxCx7ctsYun3yF6uoc-63" target="jkMxCx7ctsYun3yF6uoc-60">
          <mxGeometry width="100" height="100" relative="1" as="geometry">
            <mxPoint x="-950" y="-629" as="sourcePoint" />
            <mxPoint x="-850" y="-729" as="targetPoint" />
            <Array as="points">
              <mxPoint x="-896" y="-430" />
            </Array>
          </mxGeometry>
        </mxCell>
      </root>
    </mxGraphModel>
  </diagram>
</mxfile>
